<?xml version="1.0" encoding="UTF-8"?>
<svg xmlns="http://www.w3.org/2000/svg" xmlns:xlink="http://www.w3.org/1999/xlink" width="25px" height="25px" viewBox="0 0 25 25" version="1.1">
<g id="surface1">
<path style=" stroke:none;fill-rule:nonzero;fill:rgb(0%,0%,0%);fill-opacity:1;" d="M 13.332031 7.5 C 13.085938 7.5 12.855469 7.574219 12.660156 7.691406 C 12.464844 7.808594 12.324219 7.949219 12.207031 8.066406 L 9.707031 10.507812 C 9.207031 10.917969 9.109375 10.929688 8.625 10.507812 L 7.796875 9.722656 C 7.675781 9.605469 7.535156 9.460938 7.34375 9.347656 C 7.148438 9.230469 6.917969 9.167969 6.667969 9.167969 C 6.417969 9.167969 6.191406 9.230469 5.996094 9.347656 C 5.800781 9.460938 5.660156 9.601562 5.542969 9.71875 L 2.632812 12.621094 C 2.242188 12.988281 2.835938 13.59375 3.21875 13.210938 L 6.128906 10.3125 C 6.589844 9.898438 6.722656 9.902344 7.210938 10.3125 L 8.039062 11.101562 C 8.160156 11.21875 8.300781 11.359375 8.492188 11.476562 C 8.691406 11.589844 8.921875 11.667969 9.167969 11.667969 C 9.417969 11.667969 9.648438 11.589844 9.84375 11.476562 C 10.035156 11.359375 10.175781 11.21875 10.296875 11.101562 L 12.796875 8.65625 C 13.234375 8.242188 13.460938 8.242188 13.875 8.65625 L 15.949219 10.699219 C 16.34375 11.105469 16.945312 10.496094 16.535156 10.109375 L 14.457031 8.0625 C 14.339844 7.949219 14.203125 7.808594 14.007812 7.691406 C 13.8125 7.574219 13.582031 7.5 13.332031 7.5 Z M 21.25 5 C 20.6875 4.992188 20.6875 5.839844 21.25 5.832031 L 23.75 5.832031 C 23.988281 5.832031 24.167969 6.011719 24.167969 6.25 L 24.167969 23.75 C 24.167969 23.988281 23.988281 24.167969 23.75 24.167969 L 6.25 24.167969 C 6.011719 24.167969 5.832031 23.988281 5.832031 23.75 L 5.832031 21.25 C 5.839844 20.6875 4.992188 20.6875 5 21.25 L 5 23.75 C 5 24.433594 5.566406 25 6.25 25 L 23.75 25 C 24.433594 25 25 24.433594 25 23.75 L 25 6.25 C 25 5.566406 24.433594 5 23.75 5 Z M 5.417969 3.332031 C 4.269531 3.332031 3.332031 4.269531 3.332031 5.417969 C 3.332031 6.5625 4.269531 7.5 5.417969 7.5 C 6.5625 7.5 7.5 6.5625 7.5 5.417969 C 7.5 4.269531 6.5625 3.332031 5.417969 3.332031 Z M 5.417969 4.167969 C 6.113281 4.167969 6.667969 4.722656 6.667969 5.417969 C 6.667969 6.113281 6.113281 6.667969 5.417969 6.667969 C 4.722656 6.667969 4.167969 6.113281 4.167969 5.417969 C 4.167969 4.722656 4.722656 4.167969 5.417969 4.167969 Z M 2.917969 15.832031 L 17.082031 15.832031 C 17.3125 15.832031 17.5 16.019531 17.5 16.25 C 17.5 16.480469 17.3125 16.667969 17.082031 16.667969 L 2.917969 16.667969 C 2.6875 16.667969 2.5 16.480469 2.5 16.25 C 2.5 16.019531 2.6875 15.832031 2.917969 15.832031 Z M 1.25 0 C 0.566406 0 0 0.566406 0 1.25 L 0 18.75 C 0 19.433594 0.566406 20 1.25 20 L 18.75 20 C 19.433594 20 20 19.433594 20 18.75 L 20 1.25 C 20 0.566406 19.433594 0 18.75 0 Z M 1.25 0.832031 L 18.75 0.832031 C 18.988281 0.832031 19.167969 1.011719 19.167969 1.25 L 19.167969 18.75 C 19.167969 18.988281 18.988281 19.167969 18.75 19.167969 L 1.25 19.167969 C 1.011719 19.167969 0.832031 18.988281 0.832031 18.75 L 0.832031 1.25 C 0.832031 1.011719 1.011719 0.832031 1.25 0.832031 Z M 1.25 0.832031 "/>
</g>
</svg>
