<?xml version="1.0" encoding="UTF-8"?>
<svg xmlns="http://www.w3.org/2000/svg" xmlns:xlink="http://www.w3.org/1999/xlink" width="32px" height="32px" viewBox="0 0 32 32" version="1.1">
<g id="surface1">
<path style="fill:none;stroke-width:1;stroke-linecap:round;stroke-linejoin:round;stroke:rgb(0%,0%,0%);stroke-opacity:1;stroke-miterlimit:4;" d="M 16.101562 6.328125 C 15.421875 6.328125 14.765625 6.597656 14.285156 7.078125 C 13.798828 7.558594 13.529297 8.208984 13.529297 8.888672 L 13.529297 16.552734 L 4.529297 16.552734 L 8.800781 24 L 8.800781 39.099609 C 8.794922 39.785156 9.064453 40.441406 9.544922 40.921875 C 10.025391 41.408203 10.675781 41.677734 11.361328 41.677734 L 31.447266 41.677734 C 32.859375 41.671875 34.001953 40.523437 34.001953 39.111328 L 34.001953 31.447266 L 36.597656 31.447266 C 37.283203 31.453125 37.939453 31.189453 38.419922 30.708984 C 38.900391 30.228516 39.169922 29.572266 39.169922 28.892578 L 39.169922 13.769531 L 43.470703 6.328125 Z M 34.001953 28.511719 L 34.001953 19.119141 C 34.001953 17.707031 32.853516 16.552734 31.441406 16.552734 L 16.441406 16.552734 M 16.998047 24.199219 C 18.035156 24.199219 18.867187 25.037109 18.867187 26.068359 C 18.867187 27.105469 18.035156 27.9375 16.998047 27.9375 C 15.966797 27.9375 15.128906 27.105469 15.128906 26.068359 C 15.128906 25.037109 15.966797 24.199219 16.998047 24.199219 Z M 25.751953 24.199219 C 26.519531 24.152344 27.246094 24.580078 27.568359 25.283203 C 27.890625 25.986328 27.75 26.8125 27.210937 27.369141 C 26.671875 27.925781 25.845703 28.089844 25.136719 27.785156 C 24.421875 27.480469 23.970703 26.771484 24 25.998047 C 24.023437 24.996094 24.826172 24.193359 25.828125 24.169922 Z M 15 31.359375 L 27.837891 31.359375 C 27 34.207031 24.380859 36.158203 21.416016 36.158203 C 18.445312 36.158203 15.832031 34.207031 14.988281 31.359375 Z M 15 31.359375 " transform="matrix(0.666667,0,0,0.666667,0,0)"/>
<path style="fill:none;stroke-width:1;stroke-linecap:round;stroke-linejoin:round;stroke:rgb(0%,0%,0%);stroke-opacity:1;stroke-miterlimit:4;" d="M 13.529297 16.552734 L 16.458984 16.552734 " transform="matrix(0.666667,0,0,0.666667,0,0)"/>
<path style="fill:none;stroke-width:1;stroke-linecap:round;stroke-linejoin:round;stroke:rgb(0%,0%,0%);stroke-opacity:1;stroke-miterlimit:4;" d="M 34.03125 28.511719 L 34.03125 31.447266 " transform="matrix(0.666667,0,0,0.666667,0,0)"/>
<path style="fill:none;stroke-width:1;stroke-linecap:round;stroke-linejoin:round;stroke:rgb(0%,0%,0%);stroke-opacity:1;stroke-miterlimit:4;" d="M 18.890625 12.908203 L 34.21875 12.908203 " transform="matrix(0.666667,0,0,0.666667,0,0)"/>
</g>
</svg>
